<?xml version="1.0" encoding="UTF-8"?><svg id="_レイヤー_2" xmlns="http://www.w3.org/2000/svg" viewBox="0 0 141.73 226.77"><defs><style>.cls-1{fill:none;}.cls-1,.cls-2{stroke-width:0px;}.cls-2{fill:#eff3f4;}</style></defs><g id="_レイヤー_2-2"><path class="cls-2" d="M98.56,98.6c-.22-.86-.95-1.85-2.06-2.51-1.06-.63-3.11-1.61-3.92-2.09,0,0,2.06-.63,2.3-1.78.23-1.15-.3-5.19-.6-7.78-.3-2.59-.65-5.42-.32-8.47.34-3.05,1.57-11.89,1.82-14.34.24-2.45.36-6.05,1-8,.65-1.95.65-2.82.18-3.12-.48-.3-1.38-.91-1.95-.83-.57.07-1.73.54-2.63,1.45-.95.97-2.24,2.77-3.33,3.51-1.1.75-3.05,1.79-3.76,1.11-.71-.68.5-3.71.88-4.57.38-.86,7.55-12.87,8.64-14.57,2.13-3.33,3.68-6.58,3.09-7.98-.58-1.4-2.7-2.06-5.7-1.14-1.26.39-10.65,3.25-13.31,4.45-2.06.93-2.76,2.04-3.54,2.91,0,0,4.86-1.76,8.8-2.99,2.59-.81,7.78-1.71,8.3-1.18.64.66.73,2.46-.02,4.05-1.18,2.49-10.06,18.28-10.75,20.6-.7,2.32-.24,6,1.57,6.76,1.82.76,3.44-.39,4.29-1.14s3.22-3,3.63-3.18.8.15.93.68c.13.53-.14,4.91-.3,7.5-.15,2.59-1.02,8.76-1.05,13.06-.03,4.3.99,9.4.87,10.53-.12,1.12-1.38,2.17-2.06,2.42-.68.25-2.07-.53-2.61-.84-.54-.3-3.77-2.54-5.23-3.15-1.46-.61-3.98-1.45-6.65-1.27-2.66.18-4.48.98-4.97,2.07-.37.84.21,1.69.91,1.84.36.08,1.5.04,2.47.62.97.58,4.71,3.42,6.27,4.37,1.73,1.05,4.39,2.68,6.71,2.43,2.32-.25,3.44-1.17,4.39-2.12,1.51,1.4,2.87,3.46,3.54,4.27.5.61,1.69,1.95,2.9,2.03,1,.06,1.67-2.04,1.28-3.61ZM85.05,94.65c-1.44-.06-2.64-.52-4.2-1.54-1.56-1.02-3.51-2.25-5.21-2.94,1.81-.63,4.15-.58,6.41.93,1.54,1.03,5.61,2.75,5.61,2.75,0,0-1.22.85-2.61.79Z"/><path class="cls-2" d="M34.94,29.53c.95.11,1.45.47,2.08.9.88.61,2.11,2.02,2.67,2.93.32.53.45,1.3.35,2.06-.07.58-.82,1.17-1.29,1.38-.58.26-1.46.49-2.28,1.45-.42.48-1.76,2.69-2.8,4.87-3.41,7.15-6.69,23.03-5.32,33.28,1.37,10.25,2.92,17.27,4.84,20.12.95,1.41,1.51.17,1.67-.46.16-.63,3.48-10.98,3.69-11.26s.6.11.65.45-.67,3.29-1.06,5.69c-.39,2.4-.69,6.54-.23,7.9.46,1.36,2.59,3.64,2.86,4.6s.7,2.88.24,3.6-2.91-.3-4.06-.93-3.29-2.3-4.58-3.97c-1.29-1.67-3-5.47-3.92-7.98-1.99-5.46-3.27-11.68-3.78-17.74-.9-10.56.88-21.06,2.9-27.53,1.5-4.82,3.87-10.8,4.68-12.26s1.79-3.78,1.84-4.5c.06-.89-.08-1.45-.85-2.21.16-.54,1.24-.45,1.68-.4Z"/><path class="cls-2" d="M102.58,36.08c.35-.35,1.05-.86,2.54.45.57.5,2.43,2.88,3.12,4.48s.93,5.56.74,6.48c-.19.92-.86-.05-1.42-.26-.56-.21-.86-.07-.96.15-.15.36-.07.69-.4.64s-1.37-1.46-1.87-2.26c-.7-1.14-2-4.16-2.23-6.28-.26-2.3.13-3.05.48-3.4Z"/><path class="cls-2" d="M109,37.27s.65-.31,1.64.03,1.12,1.6,1.29,2.73c.17,1.13,1.64,6.58,2.13,8.02.49,1.44.73,2.17,1.17,2.6s1.15.6,1.51.29.58-1.05.53-2.44c-.05-1.39-.13-5.65-.22-6.78-.09-1.13-.06-2.09-.86-2.9-.8-.82-2.04-2.24-3.19-2.7-1.15-.47-2.06-.24-2.53-.02s-1.42.8-1.47,1.19Z"/><path class="cls-2" d="M110.17,178.03c-1.42,2.98-4.37,8.15-9.43,12.23-3.33,2.69-12.28,9.72-22.57,9.44-6.51-.18-11.72-3.25-14.39-6.56-2.88-3.57-5.82-10.84-6.93-15.24-.9-3.54-2.13-6.66-2.73-7.97-.59-1.32-1.65-1.98-2.79-1.8-1.14.18-3.67,1.09-5.82,3.36-2.14,2.27-5.38,10.85-6.27,13.85-.89,3-1.87,9.29-1.99,10.34-.14,1.27-.68,1.89-.94,2.13s-.89.71-1.59.8-1.29-.71-1.7-1.57c-.45-.95-1.24-2.43-1.72-3.41-.67-1.37-.72-3.12-.58-3.98.16-.96.62-2.33,1.3-3.53s7.85-14.8,9.93-19.35c2.47-5.4,10.98-21.19,18.44-32.87,10.09-15.78,19.69-19.92,21.22-20.23,1.38-.28,2.17.17,2.8.61.88.61.36,1.05-.4,1.36-1.3.53-13.24,4.7-21.26,18.48-7.02,12.05-12.92,24.51-15.79,30.88,0,0,3.07-1.77,4.33-2.21,1.32-.47,3.68-.96,5.13,1.29s3.35,9.53,4.38,12.44c1.03,2.91,3.15,10,5.78,13.28,2.64,3.3,8.47,6.18,14.16,5.82,8.19-.52,13.86-4.03,17.81-6.71,5.19-3.52,8.84-9.08,10.41-11.64.79-1.28,1.73-.33,1.21.76Z"/><rect class="cls-1" width="141.73" height="226.77"/></g></svg>