<?xml version="1.0" encoding="UTF-8"?><svg id="_レイヤー_2" xmlns="http://www.w3.org/2000/svg" viewBox="0 0 141.73 226.77"><defs><style>.cls-1{fill:none;}.cls-1,.cls-2{stroke-width:0px;}.cls-2{fill:#eff3f4;}</style></defs><g id="_レイヤー_2-2"><path class="cls-2" d="M28.95,71.11s-2.04,2.37.79,4.77c2.73,2.32,7.14,2.26,9.48,1.71,2.63-.62,8.98-6.77,11.18-8.41,2.19-1.64,21.46-11.44,28.63-13.73,7.55-2.41,15.68-3.82,22.12-1.8,5.16,1.62,8.67,7.31,8.76,10.78.14,4.99-1.98,9.59-5.63,13.66-4.39,4.9-15.55,12.36-16.45,13.32-.89.95-1.5,2.03-1.58,3.13-.19,2.62-.69,6.8-2.58,11.36-1.53,3.69-16.3,28.91-17.88,31.46-1.36,2.19-3.97,5.33-4.32,7.57s.2,4.32,1.18,6.03c.98,1.71,9.44,5.65,13.19,8.37,4.43,3.21,9.29,7.89,10.22,10.6s.44,4.16.54,5.35c.1,1.19,2.59,2.37,3.69,2.7,1.1.33,2.65.7,2.89-.34s.21-3.14-1.16-6.89c-1.91-5.21-10.09-10.47-15.01-13.47-3.18-1.94-9.94-5.43-10.66-7.4-.82-2.22-.9-4.77.1-6.82.84-1.71,4.74-9.34,6.55-12.97,1.66-3.34,15.13-26,15.73-29.52.55-3.24-.22-6.43.36-7.89.59-1.46,2.82-2.59,3.81-3.54.99-.95,6.63-3.47,9.15-5.22,2.52-1.75,8.44-6.79,10.25-12.39,1.81-5.6,1.47-10.42-.43-13.89-2.22-4.06-5.9-6.85-9.63-8.17-5.09-1.8-14.65-1.15-22.76,1.45-8.12,2.6-24.89,10.93-29.34,14.03-4.45,3.09-12.5,6.64-14.28,6.8-1.66.15-3.51.31-4.89.05-1.27-.24-2.02-.7-2.02-.7Z"/><rect class="cls-1" width="141.73" height="226.77"/></g></svg>