<?xml version="1.0" encoding="UTF-8"?><svg id="_レイヤー_2" xmlns="http://www.w3.org/2000/svg" viewBox="0 0 141.73 226.77"><defs><style>.cls-1{fill:none;}.cls-1,.cls-2{stroke-width:0px;}.cls-2{fill:#eff3f4;}</style></defs><g id="_レイヤー_2-2"><path class="cls-2" d="M26.69,61.91c.45,1.04.3,2.11-.25,3.37s-8.02,19.6-4.74,38.41c3.28,18.81,11.26,25.93,13.89,27.61,2.63,1.68,4.11-3.15,2.96-4.57-.82-1.02-1.63-4.49-2.19-7.31-.22-1.09-.49-.91-.48-.58.03,1.01.03,2.94-.74,3.81-.57.65-1.49.22-1.57.14-.42-.39-.81-.81-1.16-1.28-1.88-2.48-4.89-7.53-7.19-18.67-2.05-9.94.75-24.65,1.58-26.66s1.91-2.27,2.35-2.04c.44.23.4.65.95.87s1.04-.14,1.71-.65c.66-.51,1.86-1.91,1.72-2.99-.14-1.08-.24-2.2-.86-3.65s-2.62-5.59-3.43-6.08c-.81-.49-2.17-.32-2.55.27Z"/><path class="cls-2" d="M104.34,55.92c-.02,1.31,1.27,7.54,2.88,8.74,1.61,1.2,3.21,2.19,3.72,1.71s.96-1.92.55-3.93c-.41-2.01-1.01-3.68-2.43-5.15-1.42-1.47-2.47-1.99-3.3-1.98-.83.01-1.41.23-1.41.61Z"/><path class="cls-2" d="M113.29,52.93c.47.49,1.26,1.3,1.37,2.65.11,1.35.06,4.11.64,7.53.58,3.42-.4,5.4-.59,5.94-.14.39.03.65.5.41.47-.24,1.86-1.64,2.55-2.82.53-.91,1.28-2.25,1.47-2.64s.98-1.27,1.17-1.43.48-.55.45-1.44c-.03-.9-.26-2.58-.91-3.86s-2.49-3.38-3.44-3.86-2.64-1.04-2.98-1.15-.57.34-.25.67Z"/><path class="cls-2" d="M104.26,108.79c-1.06-1.17-3.71-2.64-7.4-3.51,0,0-.7-10.81-.78-15.13-.06-3.17-.06-9.48.09-11.78.15-2.3.73-4.02.73-4.02,0,0,1.63-.44,2.35-.27.72.17,1.15-.08,1.26-.77.11-.69.14-2.81-.59-4.02-2.08-3.46-5.49-4.03-6.68-3.97-1.05.05-1.7.82-1.75,1.94-.05,1.12-.22,2.47-.89,3.16-.67.69-7.48,6.93-9.49,8.7-3.79,3.33-11.45,9.51-15.48,12.18-4.03,2.66-7.09,3.7-9.85,4.52-2.36.69-3.79.89-5.21,1.08-.27.04-.31.41.04.43.94.04,8.05.35,15.94-3.8,7.32-3.84,12.57-9.02,16.25-12.07,1.96-1.62,9.41-6.76,9.41-6.76,0,0,.04,12.07.13,16.91.09,4.83.74,12.75.74,12.75,0,0-4.5-1.03-8.24-.52-3.74.51-8.37,2.45-9.31,3-.7.41-.76,1.46-.27,2.13.36.5.79,1.27,1.29,2.91.5,1.64,1.22,4.39,2.91,7.63,1.87,3.6,4.61,6.94,6.15,7.25,1.54.31,5.35-2.23,6.82-3.9,2.97-3.37,3.84-7.22,4.58-12.7,0,0,4.69,1.22,5.18,1.41.48.2.52.67.14,1.08-.38.41-1.21.99-1.31,1.18s.27.15.34.13c.07-.02.85-.39.95-.32.11.06.29.24.68.2.4-.04,1.31-.13,1.53-.02.22.11.61.22.97-.06.36-.28.76-.77.67-1.25-.09-.47-.8-2.55-1.86-3.71ZM90.17,119.29c-.87.99-3.72,2.99-5.03,2.05-2.48-1.77-4.16-6.06-4.51-7.35-.67-2.42-.57-4.96,1.39-5.86,2.08-.95,7.55-1.33,11.11.49.19,4.97-1.56,9.1-2.95,10.67Z"/><path class="cls-2" d="M86.61,145.55c-2.31,1.8-5.32,4.4-6.54,6.26-1.25,1.9-3.18,5.88-1.14,8.6,1.38,1.85,2.63,1.9,4.39,1.66,2.98-.42,15.29-13.19,20.87-12.25,5.58.95,7.49,10.25,3.2,16.52-3.97,5.81-6.6,6.35-7.33,7-.86.76-.85,1.35-.17,1.14.68-.21,5.9-2.06,8.97-5.65,3.48-4.07,5.14-9.79,4.71-13.86-.5-4.79-4.49-7.22-6.96-7.56-2.53-.35-5.71.13-8.49,1.95-1.4.92-11.68,7.34-13.2,8.05s-3.05.54-3.46-.47c-.75-1.83-.11-2.93.44-4.26,1.04-2.52,2.87-3.81,3.58-4.7,1.06-1.33,1.14-2.44,1.14-2.44Z"/><rect class="cls-1" width="141.73" height="226.77"/></g></svg>