<?xml version="1.0" encoding="UTF-8"?><svg id="_レイヤー_2" xmlns="http://www.w3.org/2000/svg" viewBox="0 0 141.73 226.77"><defs><style>.cls-1{fill:none;}.cls-1,.cls-2{stroke-width:0px;}.cls-2{fill:#eff3f4;}</style></defs><g id="_レイヤー_2-2"><path class="cls-2" d="M28.91,60.94c1.23.42,4.77,1.22,6.79,1.31,1.94.09,3.78.25,8.37-1.7,4.59-1.95,19.28-11.88,24.6-15.06,5.33-3.18,18.15-9.85,28.76-8.97,10.63.88,16.52,10.32,16.13,19.84-.46,11.17-8.36,16.18-13.47,20.43-2.79,2.32-7.95,5.11-10.93,6.97-1.6,1-4.15,2.57-5.29,2.97-.4.14-.83.26-1.16.14s-.42-1.42,1.19-2.42c1.96-1.21,3.41-1.81,5.21-3.03,2.54-1.72,7.22-4.84,9.75-7.01,4.99-4.28,10.2-10.1,10.43-17.47.17-5.29-2.77-16.22-12.32-16.81-9.55-.58-17.78,2.84-26.93,8.29-9.15,5.45-20.49,14.14-25.29,16.43-4.8,2.29-7.5,3.52-10.96,2.84-3.46-.69-5.19-3.56-5.56-4.02-.37-.46.41-2.81.67-2.72Z"/><path class="cls-2" d="M80.17,96.27c1.19-.29,5.28.69,5.55,1.85.25,1.07.26,1.78.08,2.76-.14.74-2.93,7.34-4.3,10.9-1.38,3.56-12.2,27.54-12.72,29.03-.53,1.49-.95,4.45,1.36,8.54,3.06,5.43,9.97,15.67,12.72,20.98,2.93,5.65,4.39,8.42,4.92,11.22.53,2.8-.49,6.19-1.29,7.6s-2.24,1.57-3.57.29c-1.33-1.27-1.71-4.34-2.27-7.16-.71-3.58-1.18-6.2-2.93-11.42-2.56-7.6-4.29-10.1-7.74-15.98-2-3.41-4.12-7.93-4.34-10.3-.18-1.92.06-4.32.87-5.93,1.02-2.03,10.56-24.67,11.48-27.1s3.41-9.22,3.17-11.05c-.23-1.83-.41-2.24-.88-2.6s-.73-.43-.97-.64-.24-.74.86-1.01Z"/><rect class="cls-1" width="141.73" height="226.77"/></g></svg>