<?xml version="1.0" encoding="UTF-8"?><svg id="_レイヤー_2" xmlns="http://www.w3.org/2000/svg" viewBox="0 0 141.73 226.77"><defs><style>.cls-1{fill:none;}.cls-1,.cls-2{stroke-width:0px;}.cls-2{fill:#eff3f4;}</style></defs><g id="_レイヤー_2-2"><path class="cls-2" d="M24.87,26.84c2.48.95,6.05,3.43,6.71,6,.66,2.57-1.2,5.41-2.83,7.34s-2.24,5.16-2.56,7.07c-.29,1.73.22,4.51.67,6.42.45,1.91.48,3.26-.22,5.2-.7,1.93-3.14,13.91-2.32,21.73.82,7.81,3.82,12.63,4.64,13.32s1.75.37,2.2-.5c.46-.87,2.62-3.82,5.47-10.11,2.84-6.28,4.3-10.45,4.64-11.37.34-.92.65-.34.49.28-.16.62-2.77,8.94-3.79,11.75-1.02,2.81-4.39,14.91-4.25,15.91s.62,1.34.69,2.23c.07.88-.46,1.63-1.98,1.39s-4.16-2.1-6.58-5.76c-2.42-3.66-4.17-9.2-5.03-16.42-.86-7.22,1.28-18.76,1.66-20.53.48-2.3.79-5.82.44-7.87-.32-1.82-3.07-5.29-2.05-7.16,1.02-1.87,2.59-4.31,3.41-6.76.82-2.45.58-8.66-.51-9.96-1.08-1.3.15-2.55,1.11-2.18Z"/><path class="cls-2" d="M102.44,26.03c-.73,1.09,2.06,5.83,2.95,7.46.89,1.62,2.88,5.38,3.8,6.16.91.79,1.51.91,1.76.97s.33-.53.12-1.14-1.43-4.09-1.27-5.29c.16-1.21,1.25-3.41,1.33-3.97s-.23-.69-.66-.94c-.43-.25-2.56-2.33-4.2-2.89s-3.28-1.17-3.82-.36Z"/><path class="cls-2" d="M113.79,25.27c.76,1.79,1.27,4.11,1.91,5.7.64,1.6.65,3.91,1.02,4.85.37.94,1.46.91,2.02.19s2.4-1.45,2.37-3.48c-.03-2.03-.27-3.92-2.5-5.47-2.23-1.55-3.65-2.17-4.2-2.5s-.91.06-.63.71Z"/><path class="cls-2" d="M99.37,81.38c-.73-1.92-4.16-2.69-8.36-3.41.06-2.32-.31-11.48-.29-15.85.02-4.37.64-10.37.64-10.37,0,0,1.03-1.59,1.52-2.57.49-.98,1.15-2.14.44-2.94-.71-.81-2.43-1.88-3.75-1.16-1.32.73-1.8,4.41-2.66,6.01-.86,1.6-4.18,5.11-8.44,6.79.59-4.63,1.66-9.04,3.74-13.89,2.08-4.85,6.26-10.1,7.83-10.3.45-.06.53.25,1.1.23.57-.02,1.22-.74,1.34-1.34.12-.59-.21-2.07-1.7-3.36-1.49-1.29-5.25-1.82-7.32-1.86-2.07-.04-4.28,1.1-4.72,1.66-.4.51-.29,1.01.45.84.73-.17,2.45.21,3.77.83,1.32.62,1.58,2.66.98,4.14-.6,1.48-2.38,5.3-3.81,9.03-2.49,6.48-4.92,15.66-4.93,18.03-.02,2.37,2.31,2.47,3.08,1.42.77-1.05,2.1-2.79,3.85-4.39,1.75-1.6,5.05-3.48,5.05-3.48,0,0-.3,5.22-.25,8.15.06,3.71.5,9.6.32,13.56-3.16-.41-6.8-.36-10.44.86-3.64,1.22-5.88,3.92-6.88,4.9-.99.99-1.47,1.88-1.11,2.93.36,1.05,3.42,2.99,5.16,3.7,1.74.71,7.24,3.34,8.99,4.89,1.75,1.55,4.13,4.22,4.65,4.68.52.46,1.16.38,1.55-.43.39-.8.81-2.77,1.07-5.03.27-2.26.69-7.91.92-11.7,2.93.97,7.75,3.64,8.31,3.9.56.26.95.08.88-.41-.06-.49-.26-2.15-.99-4.08ZM79.82,88.21c-2.5-.82-4.9-1.62-6.11-2.35-1.21-.73-1.4-2.38.17-3.8,1.89-1.71,8.76-3.95,13.4-1.76.08,2.08.04,3.25-.28,5.8-.38,3.08-.88,4.58-.88,4.58,0,0-3.8-1.65-6.31-2.46Z"/><path class="cls-2" d="M64.83,115.75c1.59-.11,3.62.24,4.38.67s1.04,2.52,1.88,3.73,2.43,2.16,2.45,3.62-1.03,3.31-2.57,4.33c-1.53,1.02-5.61,1.84-8.56,5.19-2.95,3.35-10.69,17-12.5,22.62,4.01-.69,8.73,1.17,10.7,5.68,1.97,4.51,1.78,16.04,3.1,20.49,1.57,5.31,3.93,12.41,14.23,14.8,15.57,3.61,30.6-13.47,34.05-30.09,0,0-.09,8.16-1.67,14.44-1.53,6.1-15.85,24.26-32.43,20.64-15.38-3.36-17.18-13.96-18.1-17.61-1.36-5.42-1.33-12.85-1.61-15.51-.28-2.66-1.27-7.37-5.22-8.68-3.95-1.31-6.99,3.77-8.2,6.49-1.22,2.72-8.59,17.64-8.9,22.06-.31,4.42.54,7.49-.53,9.59-1.08,2.1-2.31,3.33-3.89,3.15s-4.18-3.13-4.13-6.13,3.96-8.43,6.87-14.49c2.92-6.06,16.94-37.19,21.26-44.07,4.32-6.87,7.38-11.61,8.85-13.61,1.47-2,1.09-3.82.65-4.84s-.96-2.41-.11-2.47Z"/><rect class="cls-1" width="141.73" height="226.77"/></g></svg>