<?xml version="1.0" encoding="UTF-8"?><svg id="_レイヤー_2" xmlns="http://www.w3.org/2000/svg" viewBox="0 0 141.73 226.77"><defs><style>.cls-1{fill:none;}.cls-1,.cls-2{stroke-width:0px;}.cls-2{fill:#eff3f4;}</style></defs><g id="_レイヤー_2-2"><path class="cls-2" d="M104.29,25.73c-.97.74-1.08,3.35.2,5.77,1.29,2.42,2.12,4.76,3.06,5.98.93,1.22,1.95,1.67,2.46,2.11s.86-.02.68-1.14c-.18-1.13-.08-3.27.09-4.62.17-1.35-.21-1.69-.43-2.91-.22-1.22-.14-1.22.29-1.2s2.3,2.27,2.92,3.18c.62.91,1.89,3.05,2.19,3.25.3.2,1.65.94,2.22.54s.42-2.88-.54-5.15c-.97-2.27-2.27-4.83-4.34-4.67-2.07.17-1.87.92-3.33.59-1.45-.33-2.12-1.1-2.97-1.59s-1.7-.73-2.49-.13Z"/><path class="cls-2" d="M102,76.56c-.59-1.36-1.42-2.21-3.29-2.54-1.86-.33-4.02-.47-4.02-.47,0,0-.2-8.1.04-11.21.24-3.11,1.28-9.37,2.32-11.06,1.03-1.69,1.16-2.79,1.04-3.44-.12-.65-1.53-2.36-3.01-1.19-1.47,1.18-4.61,6.65-6.52,8.36-1.91,1.71-2.48,1.83-2.89,1.97-.41.14-.81.06-.42-1.51.38-1.58.62-3.97,1.34-5.93.73-1.96,4.62-13.89,4.85-14.59.23-.7-.06-.9-.61-1.12-.55-.22-2.08-1.35-3.45-1.25-1.37.1-3.5.93-4.31,1.33-1.86.91-8.95,5.47-13.42,9.48-4.14,3.72-18.45,19.06-23.96,26.2-5.51,7.14-12.46,19.72-13.57,21.91-1.12,2.19-2.42.46-3.14-.53-1.42-1.98-2.99-6.29-3.26-13.18-.41-10.7,1.58-29.08,4.26-32.6,2.68-3.52,3.28-3.25,4.44-4.03,1.16-.78,1.39-1.72-.13-4.23-1.32-2.17-2.46-3.15-3.46-3.72-.72-.42-1.67-.45-1.8.66-.26,2.34-2.49,6.67-3.35,10.7-1.17,5.4-3.08,21.4-1.83,35.78.78,8.95,1.72,18.11,3.37,22.09.85,2.05,2.61,3.97,4.2,4.62,1.11.45,2.04-.73,1.92-2.76-.12-2.04-.49-6.31.57-9.3,1.07-2.99,6.09-16,13.07-25.27s22.59-23.48,26.38-25.72c4.17-2.47,6.15-2.78,7.21-3.14,1.42-.48,3.36-1.61,3.75-1.96.59-.52,1.97-.71,1.99.89.02,1.6-1.77,5.81-2.81,9.54-1.04,3.74-2.49,8.75-1.88,11.75.61,3.01,2.72,3.8,3.9,3.03,1.17-.77,3.55-4.05,4.58-6.39,1.03-2.35,2.37-1.3,2.14-.27-.23,1.02-.55,5.15-.36,8.69.19,3.54.19,7.32.19,7.32,0,0-5.86,2.54-9.23,5.13-3.37,2.58-8.73,8.5-9.89,9.7-1.16,1.21-.73,2.94.87,4.25,1.6,1.31,5.02,2.43,7.92,4.76,2.9,2.33,6.1,6.15,7.58,7.52,1.48,1.37,2.71,1.86,3.41-.69.71-2.55,1.24-3.74,1.31-6.61.06-2.86.44-7.72.62-11.56.19-3.83.17-8.27.17-8.27,0,0,2.81.22,4.69.9,1.88.68,3.05-.65,2.46-2.01ZM90.65,96.3c-.37.84-.9,1.49-2.06.87-1.16-.62-9.74-5.36-11.19-6.78-.75-.74-.96-1.28-.25-2.39.71-1.11,2.07-3.74,5.63-6.74,3.56-3,8.55-3.79,9.07-3.88.53-.09.79.2.74.93-.05.74-.05,4.89-.32,9.04-.27,4.15-1.24,8.11-1.62,8.95Z"/><path class="cls-2" d="M67.97,120.74c-2.8,3.72-16.27,35.47-16.87,36.25-.6.78-2.61,1.33-4.34,2.73s-4.04,4.86-5.87,10.72c-1.84,5.86-8.26,18.57-9.24,20.55s.61,3.57,1.34,5.1c.73,1.53,1.82,3.85,3.07,3.62s2.21-1.51,2.65-3.99c.45-2.52,3.1-10.83,4.66-14.92,1.56-4.09,6.63-15.82,7.48-17.55.85-1.73,2.26-3.31,2.85-.84.59,2.46,3.77,14.74,5.54,19.99,2.18,6.45,7.95,16.33,18.22,18.51,9.55,2.02,19.84-2.86,24.1-6.11,5.68-4.34,11.05-14.34,12.06-19.85-3.92,7.21-8.51,12.94-14.04,16.81-5.14,3.6-12.54,5.8-21.8,4.08-7.95-1.48-14.22-9.69-16.57-16.89-1.75-5.37-3.26-15.48-3.83-18.28-.57-2.81-1.56-3.8-2.42-3.86,1.55-3.15,5.21-13.43,8.03-18.19,2.82-4.76,7.83-10.02,9.31-10.81s2.46-.5,3-.57c.54-.07,1.63-1.04.97-2.4-.66-1.36-2.46-3.3-4.93-4.39-2.46-1.09-2.86-.4-3.37.29Z"/><rect class="cls-1" width="141.73" height="226.77"/></g></svg>